HIERARCHY
ROOT hip
{
  OFFSET 0 0 0
  CHANNELS 6 Xposition Yposition Zposition Zrotation Yrotation Xrotation
  JOINT abdomen
  {
    OFFSET 0 20.6881 -0.73152
    CHANNELS 3 Zrotation Xrotation Yrotation
    JOINT chest
    {
      OFFSET 0 11.7043 -0.48768
      CHANNELS 3 Zrotation Xrotation Yrotation
      JOINT neck
      {
        OFFSET 0 22.1894 -2.19456
        CHANNELS 3 Zrotation Xrotation Yrotation
        JOINT head
        {
          OFFSET -0.24384 7.07133 1.2192
          CHANNELS 3 Zrotation Xrotation Yrotation
          JOINT leftEye
          {
            OFFSET 4.14528 8.04674 8.04672
            CHANNELS 3 Zrotation Xrotation Yrotation
            End Site
            {
              OFFSET 1 0 0
            }
          }
          JOINT rightEye
          {
            OFFSET -3.6576 8.04674 8.04672
            CHANNELS 3 Zrotation Xrotation Yrotation
            End Site
            {
              OFFSET 1 0 0
            }
          }
        }
      }
      JOINT rCollar
      {
        OFFSET -2.68224 19.2634 -4.8768
        CHANNELS 3 Zrotation Xrotation Yrotation
        JOINT rShldr
        {
          OFFSET -8.77824 -1.95073 1.46304
          CHANNELS 3 Zrotation Xrotation Yrotation
          JOINT rForeArm
          {
            OFFSET -28.1742 -1.7115 0.48768
            CHANNELS 3 Zrotation Xrotation Yrotation
            JOINT rHand
            {
              OFFSET -22.5879 0.773209 7.07136
              CHANNELS 3 Zrotation Xrotation Yrotation
              JOINT rThumb1
              {
                OFFSET -1.2192 -0.487915 3.41376
                CHANNELS 3 Zrotation Xrotation Yrotation
                JOINT rThumb2
                {
                  OFFSET -3.37035 -0.52449 3.41376
                  CHANNELS 3 Zrotation Xrotation Yrotation
                  End Site
                  {
                    OFFSET -1.78271 -1.18214 1.43049
                  }
                }
              }
              JOINT rIndex1
              {
                OFFSET -7.75947 0.938293 5.60832
                CHANNELS 3 Zrotation Xrotation Yrotation
                JOINT rIndex2
                {
                  OFFSET -2.54057 -0.884171 1.56538
                  CHANNELS 3 Zrotation Xrotation Yrotation
                  End Site
                  {
                    OFFSET -1.62519 -0.234802 1.16502
                  }
                }
              }
              JOINT rMid1
              {
                OFFSET -8.24714 1.18213 3.41376
                CHANNELS 3 Zrotation Xrotation Yrotation
                JOINT rMid2
                {
                  OFFSET -3.10165 -0.590103 1.0647
                  CHANNELS 3 Zrotation Xrotation Yrotation
                  End Site
                  {
                    OFFSET -2.48547 -0.328903 0.83742
                  }
                }
              }
              JOINT rRing1
              {
                OFFSET -8.82822 0.546677 1.51678
                CHANNELS 3 Zrotation Xrotation Yrotation
                JOINT rRing2
                {
                  OFFSET -2.60934 -0.819778 -0.0198488
                  CHANNELS 3 Zrotation Xrotation Yrotation
                  End Site
                  {
                    OFFSET -2.33842 -0.294052 0.168128
                  }
                }
              }
              JOINT rPinky1
              {
                OFFSET -8.27202 -0.0477905 -0.4584
                CHANNELS 3 Zrotation Xrotation Yrotation
                JOINT rPinky2
                {
                  OFFSET -1.82734 -0.647385 -0.700984
                  CHANNELS 3 Zrotation Xrotation Yrotation
                  End Site
                  {
                    OFFSET -1.69225 -0.51767 -0.607171
                  }
                }
              }
            }
          }
        }
      }
      JOINT lCollar
      {
        OFFSET 2.68224 19.2634 -4.8768
        CHANNELS 3 Zrotation Xrotation Yrotation
        JOINT lShldr
        {
          OFFSET 8.77824 -1.95073 1.46304
          CHANNELS 3 Zrotation Xrotation Yrotation
          JOINT lForeArm
          {
            OFFSET 28.1742 -1.7115 0.48768
            CHANNELS 3 Zrotation Xrotation Yrotation
            JOINT lHand
            {
              OFFSET 22.5879 0.773209 7.07136
              CHANNELS 3 Zrotation Xrotation Yrotation
              JOINT lThumb1
              {
                OFFSET 1.2192 -0.487915 3.41376
                CHANNELS 3 Zrotation Xrotation Yrotation
                JOINT lThumb2
                {
                  OFFSET 3.37035 -0.52449 3.41376
                  CHANNELS 3 Zrotation Xrotation Yrotation
                  End Site
                  {
                    OFFSET 1.78271 -1.18214 1.43049
                  }
                }
              }
              JOINT lIndex1
              {
                OFFSET 7.75947 0.938293 5.60832
                CHANNELS 3 Zrotation Xrotation Yrotation
                JOINT lIndex2
                {
                  OFFSET 2.54057 -0.884171 1.56538
                  CHANNELS 3 Zrotation Xrotation Yrotation
                  End Site
                  {
                    OFFSET 1.62519 -0.234802 1.16502
                  }
                }
              }
              JOINT lMid1
              {
                OFFSET 8.24714 1.18213 3.41376
                CHANNELS 3 Zrotation Xrotation Yrotation
                JOINT lMid2
                {
                  OFFSET 3.10165 -0.590103 1.0647
                  CHANNELS 3 Zrotation Xrotation Yrotation
                  End Site
                  {
                    OFFSET 2.48547 -0.328903 0.83742
                  }
                }
              }
              JOINT lRing1
              {
                OFFSET 8.82822 0.546677 1.51678
                CHANNELS 3 Zrotation Xrotation Yrotation
                JOINT lRing2
                {
                  OFFSET 2.60934 -0.819778 -0.0198488
                  CHANNELS 3 Zrotation Xrotation Yrotation
                  End Site
                  {
                    OFFSET 2.33842 -0.294052 0.168128
                  }
                }
              }
              JOINT lPinky1
              {
                OFFSET 8.27202 -0.0477905 -0.4584
                CHANNELS 3 Zrotation Xrotation Yrotation
                JOINT lPinky2
                {
                  OFFSET 1.82734 -0.647385 -0.700984
                  CHANNELS 3 Zrotation Xrotation Yrotation
                  End Site
                  {
                    OFFSET 1.69225 -0.51767 -0.607171
                  }
                }
              }
            }
          }
        }
      }
    }
  }
  JOINT rButtock
  {
    OFFSET -8.77824 4.35084 1.2192
    CHANNELS 3 Zrotation Xrotation Yrotation
    JOINT rThigh
    {
      OFFSET 0 -1.70687 -2.19456
      CHANNELS 3 Zrotation Xrotation Yrotation
      JOINT rShin
      {
        OFFSET 0 -36.8199 0.73152
        CHANNELS 3 Zrotation Xrotation Yrotation
        JOINT rFoot
        {
          OFFSET 0.73152 -45.1104 -5.12064
          CHANNELS 3 Zrotation Xrotation Yrotation
          End Site
          {
            OFFSET -1.1221 -3.69964 12.103
          }
        }
      }
    }
  }
  JOINT lButtock
  {
    OFFSET 8.77824 4.35084 1.2192
    CHANNELS 3 Zrotation Xrotation Yrotation
    JOINT lThigh
    {
      OFFSET 0 -1.70687 -2.19456
      CHANNELS 3 Zrotation Xrotation Yrotation
      JOINT lShin
      {
        OFFSET 0 -36.8199 0.73152
        CHANNELS 3 Zrotation Xrotation Yrotation
        JOINT lFoot
        {
          OFFSET -0.73152 -45.1104 -5.12064
          CHANNELS 3 Zrotation Xrotation Yrotation
          End Site
          {
            OFFSET 1.1221 -3.69964 12.103
          }
        }
      }
    }
  }
}
MOTION
Frames:	4
Frame Time:	0.03333
0.0 0.0 0.0 0.0 0.0 0.0 0.0 0.0 0.0 0.0 0.0 0.0 0.0 0.0 0.0 0.0 0.0 0.0 0.0 0.0 0.0 0.0 0.0 0.0 0.0 0.0 0.0 0.0 0.0 0.0 0.0 0.0 0.0 0.0 0.0 0.0 0.0 0.0 0.0 0.0 0.0 0.0 0.0 0.0 0.0 0.0 0.0 0.0 0.0 0.0 0.0 0.0 0.0 0.0 0.0 0.0 0.0 0.0 0.0 0.0 0.0 0.0 0.0 0.0 0.0 0.0 0.0 0.0 0.0 0.0 0.0 0.0 0.0 0.0 0.0 0.0 0.0 0.0 0.0 0.0 0.0 0.0 0.0 0.0 0.0 0.0 0.0 0.0 0.0 0.0 0.0 0.0 0.0 0.0 0.0 0.0 0.0 0.0 0.0 0.0 0.0 0.0 0.0 0.0 0.0 0.0 0.0 0.0 0.0 0.0 0.0 0.0 0.0 0.0 0.0 0.0 0.0 0.0 0.0 0.0 0.0 0.0 0.0 0.0 0.0 0.0 0.0 0.0 0.0 0.0 0.0 0.0
0.24130000000000001 65.5898 1.9203999999999999 -7.573268 -16.17957 10.223559 4.626368 -3.113823 74.124353 -6.566126 -17.967845 -69.653748 1.658626 1.699139 11.169659 -20.163691 -13.304228 -35.096589 -0.000472 0.0 -0.003745 0.002382 0.0 0.003708 -9.651889 34.836097 11.199581 -72.31487 67.461227 102.322277 -128.34556 -85.52774 -35.036386 -14.916691 -49.618669 -13.380885 -7.75821 7.439203 1.682262 12.683981 -14.373579 -4.062289 -138.492096 4.895273 114.863784 10.347516 -2.794049 -9.522821 -10.975647 25.790198 7.638585 -150.618515 27.021866 136.400701 0.003919 1.771379 0.556552 8.93567 14.181279 1.883416 -25.516676 -38.07179 -24.577534 4.360693 3.259961 0.672067 82.10626 68.325817 -85.221407 62.870995 -23.317883 62.306572 30.966522 -71.774515 -19.133308 4.77019 30.271035 -2.52566 169.57298 -7.253646 -89.928783 -18.192363 -60.729777 -18.317926 63.260844 42.971843 -51.557383 96.742083 49.363331 -72.110308 153.32094 13.628795 -138.861816 166.782095 -15.610006 -143.777355 2.4e-05 -0.060809 0.019361 -10.326723 0.162373 0.046729 23.390482 -36.349939 22.492387 -2.193751 -2.629573 1.095048 179.990239 75.749068 0.008031 172.101264 45.845585 168.616108 4.387046 -58.965147 58.356746 -177.667569 57.829933 -86.086282 -0.00037 0.001492 -0.0 43.410422 -50.270611 136.319831 84.422139 -1.040969 89.667431 -173.355542 8.637166 161.060542
0.7647 66.2794 3.0993 -7.214192 -14.841456 10.401993 4.369472 -5.113426 115.066021 -15.037268 -9.55088 -110.662296 -6.363918 18.310848 -116.811504 35.760743 6.087682 92.334447 0.002119 0.0 0.000402 0.002989 0.0 0.003335 4.226936 -44.173026 -8.532403 27.820553 38.743552 -9.45499 -172.527394 -40.761831 50.227791 -145.634201 27.399161 130.316684 2.462601 -2.446051 -0.327415 16.573901 -28.137322 -14.267281 -50.387077 40.826009 40.024685 84.571407 -62.777139 37.525837 -159.366068 -2.685329 142.59751 -10.55864 31.591637 8.699427 -72.966009 -72.143117 -89.990108 14.011628 28.125001 -0.806967 44.711279 86.378842 -5.344083 -152.680606 25.413744 -145.414194 14.14856 43.061436 -15.996987 -136.474221 -6.736049 162.776152 -130.278925 -74.029578 -39.776719 -159.856769 -28.489887 -142.600587 -93.028278 -51.084229 -40.501114 137.245677 19.132591 -98.879955 145.33893 -6.263717 -118.67898 -15.132781 -10.507507 10.56247 -0.329052 -0.961497 0.180258 -3.430448 -0.606086 0.105859 145.118199 0.310899 179.224112 156.249315 63.997877 -172.287157 23.390953 -36.348942 22.494664 168.760821 74.35336 146.384666 -0.0 -0.000112 -0.000973 -4.443555 -26.603107 -90.446254 -42.612946 19.182489 126.802906 4.541229 -81.155729 -73.375408 0.003503 -0.000112 0.001752 42.34038 -50.306679 95.926378 59.331133 38.159517 -151.058988 105.773274 78.906817 -20.673619
1.3578 67.06530000000001 4.314500000000001 -6.319577 -13.879685 10.701667 7.386325 -6.534447 -131.278477 -0.592169 13.633605 138.008025 -8.24274 9.606161 -63.163059 20.960177 -19.296016 46.879171 -0.002836 -0.0 0.004683 0.00142 -0.0 -0.000344 -14.148242 43.061595 15.996366 -136.876642 15.404606 154.912479 98.141815 -26.5514 -116.589935 -36.92828 25.725329 17.503906 -103.199666 36.329976 60.110657 -23.516745 -12.322673 31.791853 -50.387487 40.825004 40.025536 -162.084074 -7.188292 112.240306 -89.834935 60.701965 81.262959 4.473088 -3.100452 -0.214963 -145.096709 -1.606829 -178.625068 11.732613 58.789737 -1.660991 -140.024462 -2.440987 -137.138452 -147.518945 12.445722 -141.915061 142.973954 39.431896 -147.390681 85.20383 -29.084613 115.422391 -1.968821 -74.358645 -52.704539 8.784407 43.419181 -4.157984 7.759246 7.438765 -1.682253 -130.917397 -80.185288 -55.386963 -24.076716 -42.306211 5.557605 84.350528 49.017757 -69.630681 160.673268 -6.668027 -143.244446 2.245529 14.691298 -3.043033 145.119312 0.185141 179.187113 -11.912035 29.602168 5.641299 11.345141 -22.661864 10.76315 151.393518 27.500288 146.827014 179.967393 75.750493 0.026829 170.597497 51.55721 7.273669 28.882846 41.460006 78.303067 -93.870059 -32.994456 -167.989302 0.005282 -0.000853 0.002641 42.384819 -49.657775 -82.86596 -48.18598 -32.974487 39.62514 67.105866 -69.160507 148.835748
